<?xml version="1.0" encoding="iso-8859-1"?>
<!-- Generator: Adobe Illustrator 19.0.0, SVG Export Plug-In . SVG Version: 6.00 Build 0)  -->
<svg version="1.1" id="Layer_1" xmlns="http://www.w3.org/2000/svg" xmlns:xlink="http://www.w3.org/1999/xlink" x="0px" y="0px"
	 viewBox="0 0 505 505" style="enable-background:new 0 0 505 505;" xml:space="preserve">
<circle style="fill:#324A5E;" cx="252.5" cy="252.5" r="252.5"/>
<polygon style="fill:#ACB3BA;" points="127.3,112.7 131.6,396.3 389.4,392.3 388.8,349.1 385.1,108.8 "/>
<polygon style="fill:#FFFFFF;" points="95.9,150.7 172.4,423.8 328,380.2 316.3,338.6 409.1,312.6 344.2,81.2 "/>
<polygon style="fill:#E6E9EE;" points="328,380.2 409.1,312.6 316.3,338.6 "/>
<rect x="155.093" y="235.308" transform="matrix(-0.9629 0.2698 -0.2698 -0.9629 471.6278 472.4886)" style="fill:#84DBFF;" width="96.498" height="66.699"/>
<g>
	
		<rect x="315.605" y="216.227" transform="matrix(-0.2698 -0.9629 0.9629 -0.2698 153.199 645.1266)" style="fill:#E6E9EE;" width="11.2" height="96.498"/>
	
		<rect x="308.081" y="189.492" transform="matrix(-0.2698 -0.9629 0.9629 -0.2698 169.3888 603.9329)" style="fill:#E6E9EE;" width="11.2" height="96.498"/>
	
		<rect x="300.547" y="162.757" transform="matrix(-0.2698 -0.9629 0.9629 -0.2698 185.566 562.7294)" style="fill:#E6E9EE;" width="11.2" height="96.498"/>
</g>
<rect x="238.874" y="90.677" transform="matrix(-0.2698 -0.9629 0.9629 -0.2698 117.0152 483.086)" style="fill:#ACB3BA;" width="5.6" height="212.997"/>
<g>
	
		<rect x="323.033" y="242.99" transform="matrix(-0.2698 -0.9629 0.9629 -0.2698 136.8609 686.262)" style="fill:#E6E9EE;" width="11.2" height="96.498"/>
	
		<rect x="330.52" y="269.619" transform="matrix(-0.2698 -0.9629 0.9629 -0.2698 120.7265 727.2852)" style="fill:#E6E9EE;" width="11.2" height="96.498"/>
	
		<rect x="212.703" y="273.812" transform="matrix(-0.2698 -0.9629 0.9629 -0.2698 -32.9156 619.1627)" style="fill:#E6E9EE;" width="11.2" height="96.498"/>
	
		<rect x="220.217" y="300.539" transform="matrix(-0.2698 -0.9629 0.9629 -0.2698 -49.1094 660.3354)" style="fill:#E6E9EE;" width="11.2" height="96.498"/>
</g>
<g>
	<path style="fill:#FF7058;" d="M153.6,158.5l9.8-2.8l12.3,44l-9.8,2.8l-28.7-21.7l7.7,27.6l-9.8,2.8l-12.3-44l9.2-2.6l29.5,22.3
		L153.6,158.5z"/>
	<path style="fill:#FF7058;" d="M211.5,142.3l2.5,8.7l-21.9,6.1l2.5,9.1l19.7-5.5l2.3,8.4l-19.7,5.5l2.6,9.1l22.6-6.3l2.4,8.7
		l-32.4,9.1l-12.3-44L211.5,142.3z"/>
	<path style="fill:#FF7058;" d="M247.2,159.5l0.7-27.5l10.3-2.9l14.8,23.1l1.7-27.7l10.6-3l-3,48.3l-7.3,2l-18.2-27.9l-1,33.3
		l-7.3,2l-27.7-39.7l10.6-3L247.2,159.5z"/>
	<path style="fill:#FF7058;" d="M308.5,124.6c-0.7,1-0.9,2.2-0.6,3.5c0.4,1.3,1.2,2.1,2.6,2.6c1.4,0.4,4.3,0.6,8.7,0.4
		c4.5-0.1,8.1,0.5,11,1.9s4.9,4.1,6,8s0.5,7.6-1.7,10.8c-2.3,3.3-5.8,5.6-10.6,7c-7,1.9-14,1.1-21-2.5l3.8-8.8
		c5.9,2.8,10.9,3.7,14.9,2.5c1.8-0.5,3.1-1.3,3.9-2.4c0.8-1.1,1-2.3,0.7-3.6c-0.4-1.3-1.2-2.2-2.5-2.7s-3.7-0.7-7.1-0.5
		c-5.5,0.2-9.6-0.3-12.6-1.6c-2.9-1.3-5-4-6.1-8.2c-1.2-4.2-0.6-7.8,1.8-10.9s5.8-5.3,10.3-6.5c2.9-0.8,6-1.1,9.2-1
		c3.2,0.2,6.2,0.9,8.9,2.1l-3,8.6c-4.6-1.8-9-2.2-13-1C310.4,122.8,309.2,123.5,308.5,124.6z"/>
</g>
<g>
</g>
<g>
</g>
<g>
</g>
<g>
</g>
<g>
</g>
<g>
</g>
<g>
</g>
<g>
</g>
<g>
</g>
<g>
</g>
<g>
</g>
<g>
</g>
<g>
</g>
<g>
</g>
<g>
</g>
</svg>
